<svg width="40" height="40" viewBox="0 0 40 40" fill="none" xmlns="http://www.w3.org/2000/svg">
<path d="M0 8C0 4.22876 -1.19209e-07 2.34314 1.17158 1.17158C2.34314 -1.19209e-07 4.22876 0 8 0C11.7712 0 13.6569 -1.19209e-07 14.8284 1.17158C16 2.34314 16 4.22876 16 8V32C16 35.7712 16 37.6568 14.8284 38.8284C13.6569 40 11.7712 40 8 40C4.22876 40 2.34314 40 1.17158 38.8284C-1.19209e-07 37.6568 0 35.7712 0 32V8Z" fill="#B38C8C"/>
<path d="M24 8C24 4.22876 24 2.34314 25.1716 1.17158C26.3432 -1.19209e-07 28.2288 0 32 0C35.7712 0 37.6568 -1.19209e-07 38.8284 1.17158C40 2.34314 40 4.22876 40 8V32C40 35.7712 40 37.6568 38.8284 38.8284C37.6568 40 35.7712 40 32 40C28.2288 40 26.3432 40 25.1716 38.8284C24 37.6568 24 35.7712 24 32V8Z" fill="#B38C8C"/>
</svg>
